<svg viewBox="0 0 574 811" xmlns="http://www.w3.org/2000/svg" id="welcome-svg">
    <path stroke="cadetblue" stroke-width="1" fill="none" fill-rule="evenodd" stroke-linecap="round"
        d="M2 106.5v7M2 134.5v21M2 162.5v7M2 190.5v77M2 281.5V320M2 323.5v42M2 379.5v77M2 477.5v7M2 491.5v21M2 533.5v7M8.1 481v-21M8.1 180v-7M14.2 120.5v14M14.2 183.5v7M14.2 274.5v28M14.2 358.5v28M14.2 470.5v7M14.2 526.5v14M20.3 551v-21M20.3 523v-21M20.3 495v-21M20.3 467v-91M20.3 362v-28M20.3 330.5V306M20.3 292v-91M20.3 194v-21M20.3 166v-21M20.3 138v-21M26.3 92.5v7M26.3 120.5v21M26.3 148.5v21M26.3 176.5v21M26.3 204.5v91M26.3 309.5V334M26.3 337.5v28M26.3 379.5v91M26.3 477.5v21M26.3 505.5v21M26.3 533.5v21M32.4 376v-7M32.4 306v-7M38.5 106.5v7M38.5 288.5v14M38.5 386.5v14M44.5 565v-21M44.5 537v-21M44.5 509v-21M44.5 481v-77M44.5 383v-35M44.5 344.5V320M44.5 313v-14M44.5 292v-77M44.5 208v-21M44.5 180v-21M44.5 152v-21M44.5 110v-7M50.6 78.5v7M50.6 134.5v21M50.6 162.5v21M50.6 190.5v21M50.6 218.5V348M50.6 351.5v133M50.6 491.5v21M50.6 519.5v21M50.6 547.5v21M56.6 110v-7M62.7 92.5v7M62.7 113.5v14M68.8 579v-21M68.8 551v-21M68.8 523v-21M68.8 495V362M68.8 358.5V229M68.8 222v-21M68.8 194v-21M68.8 166v-21M68.8 124v-7M68.8 96v-7M74.8 113.5v14M74.8 155.5v14M74.8 176.5v21M74.8 204.5v21M74.8 232.5v21M74.8 260.5v77M74.8 351.5V362M74.8 365.5v14M74.8 393.5v77M74.8 477.5v21M74.8 505.5v21M74.8 533.5v21M74.8 561.5v14M80.9 474v-7M80.9 271v-7M80.9 152v-7M80.9 110v-7M87 78.5v21M87 134.5v7M87 155.5v21M87 260.5v14M87 344.5v14M87 386.5v14M87 470.5v14M87 568.5v21M93 593v-7M93 579v-35M93 537v-21M93 509V376M93 372.5V243M93 236v-21M93 208v-21M93 173v-14M93 138v-7M99 106.5v7M99 134.5v7M99 155.5v14M99 344.5v56M99 561.5v7M99 582.5v7M105.1 579v-7M105.1 152v-7M111.2 120.5v7M111.2 176.5v21M111.2 204.5v21M111.2 232.5v105M111.2 393.5v133M111.2 533.5v21M117.3 579v-21M117.3 551v-21M117.3 516V362M117.3 358.5V229M117.3 215v-42M117.3 166v-21M117.3 124v-7M117.3 61V40M123.3 92.5v21M123.3 204.5v7M123.3 400.5v21M123.3 428.5v21M123.3 456.5v42M123.3 533.5v21M123.3 561.5v21M123.3 589.5v21M129.4 509v-7M129.4 194v-7M135.4 50.5v21M135.4 134.5v21M135.4 162.5v21M135.4 190.5v14M135.4 218.5V348M135.4 351.5v42M135.4 519.5v7M141.5 621v-21M141.5 593v-21M141.5 565v-21M141.5 523v-7M141.5 509v-42M141.5 460v-21M141.5 432v-21M141.5 390v-42M141.5 344.5V292M141.5 271v-56M141.5 201v-14M141.5 180v-21M141.5 124v-21M141.5 75v-7M141.5 33v-7M147.6 134.5v7M147.6 190.5v14M147.6 260.5v14M147.6 358.5v21M147.6 386.5v7M147.6 414.5v21M147.6 442.5v21M147.6 470.5v21M147.6 498.5V516M147.6 519.5v21M147.6 547.5v21M147.6 575.5v21M147.6 603.5v21M153.6 131v-7M153.6 68V40M159.7 36.5v21M159.7 120.5v7M159.7 148.5v21M159.7 176.5v21M159.7 204.5v49M159.7 281.5V334M159.7 337.5v14M159.7 400.5v7M165.8 635v-21M165.8 607v-21M165.8 579v-21M165.8 551v-21M165.8 526.5V509M165.8 502v-21M165.8 474v-21M165.8 446v-21M165.8 404v-7M165.8 390v-21M165.8 348v-14M165.8 330.5V250M165.8 232.5V229M165.8 222v-21M165.8 194v-21M165.8 166v-21M165.8 117v-7M165.8 75v-7M165.8 61V40M165.8 19v-7M171.8 344.5v7M171.8 372.5v21M171.8 400.5v7M171.8 428.5v21M171.8 463.5v14M171.8 512.5V530M171.8 533.5v21M171.8 589.5v14M171.8 617.5v21M177.9 460v-7M177.9 222v-7M177.9 103V82M177.9 54v-7M177.9 33v-7M181 241.3v80.4M181 325.3v14M184 617.5v-7M184 582.5v-7M184 568.5v-7M184 505.5v-7M184 491.5v-7M184 470.5v-7M184 421.5v-7M184 365.5v-7M184 337.5v-14M184 320v-80.5M184 218.5v-7M184 113.5v-7M184 85.5v-7M184 71.5v-14M184 36.5v-14M190 26v21M190 54v21M190 82v7M190 110v7M190 208v7M190 355v7M190 383v7M190 411v7M190 439v21M190 467v21M190 495v7M190 523v17.5M190 544v21M190 572v7M190 600v21M190 628v21M196 764.5v-21M196 736.5v-21M196 701.5v-14M196 680.5v-21M196 582.5v-21M196 505.5v-7M196 491.5v-7M196 435.5v-21M196 407.5v-21M196 379.5v-21M196 351.5v-21M196 50.5v-7M202.1 12v7M202.1 40v7M202.1 96v7M202.1 124v21M202.1 152v21M202.1 180v21M202.1 222v87.5M202.1 313v14M208.2 659.5V656M208.2 638.5v-21M208.2 610.5v-21M208.2 554.5v-21M208.2 530v-17.5M208.2 477.5v-21M208.2 449.5v-7M208.2 323.5v-14M208.2 306v-52.5M208.2 232.5v-56M208.2 169.5v-21M208.2 141.5v-21M208.2 99.5v-7M208.2 85.5v-21M208.2 43.5v-7M214.3 40v7M214.3 68v21M214.3 96v7M214.3 222v14M214.3 341v21M214.3 369v21M214.3 404v14M214.3 425v21M214.3 453v21M214.3 481v21M214.3 509v17.5M214.3 530v21M214.3 558v21M214.3 586v21M214.3 614v21M214.3 670v21M214.3 698v14M214.3 726v21M214.3 754v21M220.3 778.5v-21M220.3 750.5v-21M220.3 722.5v-35M220.3 666.5V663M220.3 446v-3.5M220.3 421.5v-21M220.3 393.5v-21M220.3 365.5v-21M220.3 323.5v-7M220.3 162.5v-14M226.4 26v7M226.4 54v7M226.4 110v35M226.4 166v49M226.4 243v52.5M226.4 299v14M226.4 425v24.5M226.4 638.5v14M226.4 666.5V691M232.4 701.5v-7M232.4 663v-14M232.4 624.5v-21M232.4 596.5v-21M232.4 568.5v-21M232.4 540.5v-21M232.4 516v-63M232.4 442.5v-7M232.4 337.5v-7M232.4 309.5v-14M232.4 292V162.5M232.4 127.5v-21M232.4 99.5v-21M232.4 57.5v-7M238.5 54v7M238.5 124v21M238.5 327v7M238.5 355v21M238.5 383v21M238.5 411v21M238.5 439v28M238.5 474v14M238.5 544v14M238.5 572v21M238.5 600v21M238.5 652.5v7M238.5 673.5V691M238.5 698v7M238.5 712v21M238.5 740v21M238.5 768v21M244.6 792.5v-7M244.6 764.5v-21M244.6 736.5v-7M244.6 708.5V684M244.6 663v-14M244.6 635v-7M244.6 596.5V593M244.6 575.5V572M244.6 561.5v-7M244.6 526.5v-7M244.6 512.5v-21M244.6 488v-3.5M244.6 470.5v-28M244.6 421.5v-7M244.6 407.5v-21M244.6 365.5v-7M244.6 337.5v-7M244.6 309.5v-7M244.6 141.5v-14M247.6 556.3v3.5M247.6 573.8v3.5M247.6 594.8v3.5M250.6 680.5v-14M250.6 652.5v-14M250.6 596.5V593M250.6 575.5V572M250.6 558v-3.5M250.6 299V152M250.6 117V96M250.6 89V61M250.6 47v-7M256.7 92.5v21M256.7 120.5v21M256.7 148.5v105M256.7 316.5v7M256.7 344.5v7M256.7 372.5v14M256.7 421.5v14M256.7 474v3.5M256.7 533.5v21M256.7 561.5v21M256.7 589.5v21M256.7 635v17.5M256.7 663v14M256.7 715.5v7M256.7 736.5v7M256.7 771.5v21M262.8 803v-21M262.8 775v-21M262.8 719v-24.5M262.8 673.5v-14M262.8 656v-24.5M262.8 621v-3.5M262.8 614v-3.5M262.8 607v-24.5M262.8 579v-21M262.8 551v-21M262.8 523v-21M262.8 498.5V481M262.8 477.5V453M262.8 432v-7M262.8 418v-21M262.8 390v-21M262.8 348v-7M262.8 320v-7M262.8 292v-7M262.8 257v-7M262.8 75V54M265.8 510.7v3.5M265.8 517.8v3.5M265.8 545.8v3.5M265.8 563.3v3.5M265.8 584.3v3.5M265.8 612.3v3.5M265.8 619.3v3.5M268.8 799.5v-14M268.8 778.5v-21M268.8 722.5V698M268.8 677v-42M268.8 631.5V607M268.8 589.5V579M268.8 572v-3.5M268.8 565v-7M268.8 547.5v-7M268.8 537v-3.5M268.8 519.5v-14M268.8 488v-3.5M268.8 481v-24.5M268.8 435.5v-35M268.8 393.5v-14M268.8 372.5v-7M268.8 351.5v-7M268.8 323.5v-7M268.8 295.5v-21M268.8 271v-24.5M268.8 71.5v-14M271.8 486.2v3.5M271.8 507.2v3.5M271.8 514.3v3.5M271.8 535.3v3.5M271.8 542.3v3.5M271.8 563.3v3.5M271.8 570.3v3.5M271.8 580.8v3.5M271.8 587.8v3.5M271.8 608.8v3.5M271.8 615.8v3.5M271.8 636.8v3.5M271.8 643.8v3.5M271.8 664.8v3.5M271.8 671.8v3.5M274.9 733v-7M274.9 673.5V670M274.9 666.5V663M274.9 645.5V642M274.9 638.5V635M274.9 617.5V614M274.9 610.5V607M274.9 589.5V586M274.9 582.5V579M274.9 572v-3.5M274.9 565v-7M274.9 544v-3.5M274.9 537v-3.5M274.9 516v-3.5M274.9 509v-3.5M274.9 488v-3.5M274.9 376v-7M274.9 362v-7M274.9 285v-14M274.9 267.5V138M274.9 131v-21M274.9 103V82M274.9 61v-7M281 302.5v7M281 330.5v7M281 386.5v14M281 442.5v7M281 491.5v21M281 519.5v21M281 547.5v21M281 575.5v21M281 631.5v3.5M281 684v7M281 743.5v7M281 792.5v14M287 810v-42M287 747v-7M287 733v-24.5M287 687.5v-7M287 659.5v-7M287 631.5v-7M287 491.5V467M287 446v-7M287 432v-21M287 397v-21M287 362v-7M287 334v-7M287 306v-7M293 302.5v7M293 330.5v7M293 386.5v14M293 442.5v7M293 491.5v21M293 519.5v21M293 547.5v21M293 575.5v21M293 631.5v3.5M293 684v7M293 743.5v7M293 792.5v14M299.1 733v-7M299.1 673.5V670M299.1 666.5V663M299.1 645.5V642M299.1 638.5V635M299.1 617.5V614M299.1 610.5V607M299.1 589.5V586M299.1 582.5V579M299.1 572v-3.5M299.1 565v-7M299.1 544v-3.5M299.1 537v-3.5M299.1 516v-3.5M299.1 509v-3.5M299.1 488v-3.5M299.1 376v-7M299.1 362v-7M299.1 285v-14M299.1 267.5V138M299.1 131v-21M299.1 103V82M299.1 61v-7M302.2 486.2v3.5M302.2 507.2v3.5M302.2 514.3v3.5M302.2 535.3v3.5M302.2 542.3v3.5M302.2 563.3v3.5M302.2 570.3v3.5M302.2 580.8v3.5M302.2 587.8v3.5M302.2 608.8v3.5M302.2 615.8v3.5M302.2 636.8v3.5M302.2 643.8v3.5M302.2 664.8v3.5M302.2 671.8v3.5M305.2 799.5v-14M305.2 778.5v-21M305.2 722.5V698M305.2 677v-42M305.2 631.5V607M305.2 589.5V579M305.2 572v-3.5M305.2 565v-7M305.2 547.5v-7M305.2 537v-3.5M305.2 519.5v-14M305.2 488v-3.5M305.2 481v-24.5M305.2 435.5v-35M305.2 393.5v-14M305.2 372.5v-7M305.2 351.5v-7M305.2 323.5v-7M305.2 295.5v-21M305.2 271v-24.5M305.2 71.5v-14M308.2 510.7v3.5M308.2 517.8v3.5M308.2 545.8v3.5M308.2 563.3v3.5M308.2 584.3v3.5M308.2 612.3v3.5M308.2 619.3v3.5M311.2 803v-21M311.2 775v-21M311.2 719v-24.5M311.2 673.5v-14M311.2 656v-24.5M311.2 621v-3.5M311.2 614v-3.5M311.2 607v-24.5M311.2 579v-21M311.2 551v-21M311.2 523v-21M311.2 498.5V481M311.2 477.5V453M311.2 432v-7M311.2 418v-21M311.2 390v-21M311.2 348v-7M311.2 320v-7M311.2 292v-7M311.2 257v-7M311.2 75V54M317.3 92.5v21M317.3 120.5v21M317.3 148.5v105M317.3 316.5v7M317.3 344.5v7M317.3 372.5v14M317.3 421.5v14M317.3 474v3.5M317.3 533.5v21M317.3 561.5v21M317.3 589.5v21M317.3 635v17.5M317.3 663v14M317.3 715.5v7M317.3 736.5v7M317.3 771.5v21M323.4 680.5v-14M323.4 652.5v-14M323.4 596.5V593M323.4 575.5V572M323.4 558v-3.5M323.4 299V152M323.4 117V96M323.4 89V61M323.4 47v-7M326.4 556.3v3.5M326.4 573.8v3.5M326.4 594.8v3.5M329.4 792.5v-7M329.4 764.5v-21M329.4 736.5v-7M329.4 708.5V684M329.4 663v-14M329.4 635v-7M329.4 596.5V593M329.4 575.5V572M329.4 561.5v-7M329.4 526.5v-7M329.4 512.5v-21M329.4 488v-3.5M329.4 470.5v-28M329.4 421.5v-7M329.4 407.5v-21M329.4 365.5v-7M329.4 337.5v-7M329.4 309.5v-7M329.4 141.5v-14M335.5 54v7M335.5 124v21M335.5 327v7M335.5 355v21M335.5 383v21M335.5 411v21M335.5 439v28M335.5 474v14M335.5 544v14M335.5 572v21M335.5 600v21M335.5 652.5v7M335.5 673.5V691M335.5 698v7M335.5 712v21M335.5 740v21M335.5 768v21M341.6 701.5v-7M341.6 663v-14M341.6 624.5v-21M341.6 596.5v-21M341.6 568.5v-21M341.6 540.5v-21M341.6 516v-63M341.6 442.5v-7M341.6 337.5v-7M341.6 309.5v-14M341.6 292V162.5M341.6 127.5v-21M341.6 99.5v-21M341.6 57.5v-7M347.6 26v7M347.6 54v7M347.6 110v35M347.6 166v49M347.6 243v52.5M347.6 299v14M347.6 425v24.5M347.6 638.5v14M347.6 666.5V691M353.7 778.5v-21M353.7 750.5v-21M353.7 722.5v-35M353.7 666.5V663M353.7 446v-3.5M353.7 421.5v-21M353.7 393.5v-21M353.7 365.5v-21M353.7 323.5v-7M353.7 162.5v-14M359.7 40v7M359.7 68v21M359.7 96v7M359.7 222v14M359.7 341v21M359.7 369v21M359.7 404v14M359.7 425v21M359.7 453v21M359.7 481v21M359.7 509v17.5M359.7 530v21M359.7 558v21M359.7 586v21M359.7 614v21M359.7 670v21M359.7 698v14M359.7 726v21M359.7 754v21M365.8 659.5V656M365.8 638.5v-21M365.8 610.5v-21M365.8 554.5v-21M365.8 530v-17.5M365.8 477.5v-21M365.8 449.5v-7M365.8 323.5v-14M365.8 306v-52.5M365.8 232.5v-56M365.8 169.5v-21M365.8 141.5v-21M365.8 99.5v-7M365.8 85.5v-21M365.8 43.5v-7M371.9 12v7M371.9 40v7M371.9 96v7M371.9 124v21M371.9 152v21M371.9 180v21M371.9 222v87.5M371.9 313v14M378 764.5v-21M378 736.5v-21M378 701.5v-14M378 680.5v-21M378 582.5v-21M378 505.5v-7M378 491.5v-7M378 435.5v-21M378 407.5v-21M378 379.5v-21M378 351.5v-21M378 50.5v-7M384 26v21M384 54v21M384 82v7M384 110v7M384 208v7M384 355v7M384 383v7M384 411v7M384 439v21M384 467v21M384 495v7M384 523v17.5M384 544v21M384 572v7M384 600v21M384 628v21M390 617.5v-7M390 582.5v-7M390 568.5v-7M390 505.5v-7M390 491.5v-7M390 470.5v-7M390 421.5v-7M390 365.5v-7M390 337.5v-14M390 320v-80.5M390 218.5v-7M390 113.5v-7M390 85.5v-7M390 71.5v-14M390 36.5v-14M393 241.3v80.4M393 325.2v14M396.1 460v-7M396.1 222v-7M396.1 103V82M396.1 54v-7M396.1 33v-7M402.2 344.5v7M402.2 372.5v21M402.2 400.5v7M402.2 428.5v21M402.2 463.5v14M402.2 512.5V530M402.2 533.5v21M402.2 589.5v14M402.2 617.5v21M408.2 635v-21M408.2 607v-21M408.2 579v-21M408.2 551v-21M408.2 526.5V509M408.2 502v-21M408.2 474v-21M408.2 446v-21M408.2 404v-7M408.2 390v-21M408.2 348v-14M408.2 330.5V250M408.2 232.5V229M408.2 222v-21M408.2 194v-21M408.2 166v-21M408.2 117v-7M408.2 75v-7M408.2 61V40M408.2 19v-7M414.3 36.5v21M414.3 120.5v7M414.3 148.5v21M414.3 176.5v21M414.3 204.5v49M414.3 281.5V334M414.3 337.5v14M414.3 400.5v7M420.4 131v-7M420.4 68V40M426.4 134.5v7M426.4 190.5v14M426.4 260.5v14M426.4 358.5v21M426.4 386.5v7M426.4 414.5v21M426.4 442.5v21M426.4 470.5v21M426.4 498.5V516M426.4 519.5v21M426.4 547.5v21M426.4 575.5v21M426.4 603.5v21M432.5 621v-21M432.5 593v-21M432.5 565v-21M432.5 523v-7M432.5 509v-42M432.5 460v-21M432.5 432v-21M432.5 390v-42M432.5 344.5V292M432.5 271v-56M432.5 201v-14M432.5 180v-21M432.5 124v-21M432.5 75v-7M432.5 33v-7M438.6 50.5v21M438.6 134.5v21M438.6 162.5v21M438.6 190.5v14M438.6 218.5V348M438.6 351.5v42M438.6 519.5v7M444.6 509v-7M444.6 194v-7M450.7 92.5v21M450.7 204.5v7M450.7 400.5v21M450.7 428.5v21M450.7 456.5v42M450.7 533.5v21M450.7 561.5v21M450.7 589.5v21M456.7 579v-21M456.7 551v-21M456.7 516V362M456.7 358.5V229M456.7 215v-42M456.7 166v-21M456.7 124v-7M456.7 61V40M462.8 120.5v7M462.8 176.5v21M462.8 204.5v21M462.8 232.5v105M462.8 393.5v133M462.8 533.5v21M468.9 579v-7M468.9 152v-7M475 106.5v7M475 134.5v7M475 155.5v14M475 344.5v56M475 561.5v7M475 582.5v7M481 593v-7M481 579v-35M481 537v-21M481 509V376M481 372.5V243M481 236v-21M481 208v-21M481 173v-14M481 138v-7M487 78.5v21M487 134.5v7M487 155.5v21M487 260.5v14M487 344.5v14M487 386.5v14M487 470.5v14M487 568.5v21M493.1 474v-7M493.1 271v-7M493.1 152v-7M493.1 110v-7M499.2 113.5v14M499.2 155.5v14M499.2 176.5v21M499.2 204.5v21M499.2 232.5v21M499.2 260.5v77M499.2 351.5V362M499.2 365.5v14M499.2 393.5v77M499.2 477.5v21M499.2 505.5v21M499.2 533.5v21M499.2 561.5v14M505.2 579v-21M505.2 551v-21M505.2 523v-21M505.2 495V362M505.2 358.5V229M505.2 222v-21M505.2 194v-21M505.2 166v-21M505.2 124v-7M505.2 96v-7M511.3 92.5v7M511.3 113.5v14M517.4 110v-7M523.4 78.5v7M523.4 134.5v21M523.4 162.5v21M523.4 190.5v21M523.4 218.5V348M523.4 351.5v133M523.4 491.5v21M523.4 519.5v21M523.4 547.5v21M529.5 565v-21M529.5 537v-21M529.5 509v-21M529.5 481v-77M529.5 383v-35M529.5 344.5V320M529.5 313v-14M529.5 292v-77M529.5 208v-21M529.5 180v-21M529.5 152v-21M529.5 110v-7M535.5 106.5v7M535.5 288.5v14M535.5 386.5v14M541.6 376v-7M541.6 306v-7M547.7 92.5v7M547.7 120.5v21M547.7 148.5v21M547.7 176.5v21M547.7 204.5v91M547.7 309.5V334M547.7 337.5v28M547.7 379.5v91M547.7 477.5v21M547.7 505.5v21M547.7 533.5v21M553.7 551v-21M553.7 523v-21M553.7 495v-21M553.7 467v-91M553.7 362v-28M553.7 330.5V306M553.7 292v-91M553.7 194v-21M553.7 166v-21M553.7 138v-21M559.8 120.5v14M559.8 183.5v7M559.8 274.5v28M559.8 358.5v28M559.8 470.5v7M559.8 526.5v14M565.9 481v-21M565.9 180v-7M572 106.5v7M572 134.5v21M572 162.5v7M572 190.5v77M572 281.5V320M572 323.5v42M572 379.5v77M572 477.5v7M572 491.5v21M572 533.5v7M196 764.5l18.3 10.5M220.3 778.5l18.2 10.5M244.6 792.5l18.2 10.5M287 810l-18.2-10.5M256.7 792.5l-12.1-7M287 803l6 3.5M281 792.5l-12.2-7M262.8 782l-6.1-3.5M238.5 768l-18.2-10.5M214.3 754L196 743.5M196 736.5l18.3 10.5M220.3 750.5l18.2 10.5M244.6 764.5l18.2 10.5M268.8 778.5l24.3 14M305.2 799.5l6 3.5M305.2 785.5l-6-3.5M196 715.5l18.3 10.5M220.3 729.5l18.2 10.5M244.6 743.5l18.2 10.5M268.8 757.5L287 768M305.2 778.5l6 3.5M335.5 789l-30.3-17.5M256.7 743.5l-12.1-7M238.5 733l-18.2-10.5M196 701.5l18.3 10.5M244.6 729.5l12 7M305.2 757.5L287 747M281 743.5l-12.2-7M196 687.5l18.3 10.5M220.3 701.5l18.2 10.5M274.9 733l12.1 7M293 743.5l18.2 10.5M329.4 764.5l6.1 3.5M359.7 775l-6-3.5M335.5 761l-6-3.5M287 733l-42.4-24.5M238.5 705l-6-3.5M226.4 698L196 680.5M226.4 691l12.1 7M299.1 733l18.2 10.5M353.7 757.5l-6-3.5M329.4 743.5l-6-3.5M317.3 736.5L299.1 726M196 659.5l18.3 10.5M329.4 736.5l6.1 3.5M353.7 750.5l6 3.5M287 708.5L268.8 698M262.8 694.5L244.6 684M2 540.5L20.4 551M26.3 554.5L44.5 565M50.6 568.5L68.8 579M87 589.5l6 3.5M123.3 610.5l18.2 10.5M147.6 624.5l18.2 10.5M171.8 638.5L190 649M202.1 656l18.2 10.5M305.2 715.5l30.3 17.5M353.7 743.5l6 3.5M238.5 673.5l-12.1-7M220.3 663l-12.1-7M2 533.5l12.2 7M74.8 575.5L93 586M250.6 677l3 1.7M220.3 656l-6-3.5M93 579l6 3.5M347.6 726l6 3.5M371.9 740l6 3.5M305.2 698L287 687.5M281 684l-18.2-10.5M250.6 666.5l-12.1-7M232.4 656l-6-3.5M14.2 526.5l6 3.5M26.3 533.5L44.5 544M50.6 547.5L68.8 558M74.8 561.5l12.1 7M123.3 589.5l18.2 10.5M147.6 603.5l18.2 10.5M171.8 617.5L190 628M268.8 673.5l3 1.7M329.4 708.5l6.1 3.5M353.7 722.5l6 3.5M311.2 694.5L293.1 684M287 680.5l-12.1-7M271.8 671.8l-3-1.8M256.7 663l-12.1-7M238.5 652.5l-6-3.5M2 512.5L20.4 523M26.3 526.5L44.5 537M50.6 540.5L68.8 551M74.8 554.5l42.5 24.5M123.3 582.5l18.2 10.5M147.6 596.5l18.2 10.5M184 617.5l6 3.5M208.2 631.5l6 3.5M262.8 663l12 7M329.4 701.5l6.1 3.5M271.8 664.8l-3-1.8M262.8 659.5l-12.2-7M244.6 649l-18.2-10.5M171.8 603.5l12.1 7M250.6 649l12.2 7M271.8 661.3l3 1.7M329.4 694.5l6.1 3.5M353.7 708.5l6 3.5M302.2 675.3l-3-1.8M202.1 614l6 3.5M262.8 649l6 3.5M299.1 670l3 1.7M305.2 673.5l3 1.7M329.4 687.5l24.3 14M365.8 708.5l12.1 7M329.4 684l-18.2-10.5M305.2 670L287 659.5M250.6 638.5l-12.1-7M2 491.5L20.4 502M26.3 505.5L44.5 516M50.6 519.5L68.8 530M74.8 533.5L93 544M111.2 554.5l6 3.5M123.3 561.5l18.2 10.5M147.6 575.5l18.2 10.5M171.8 589.5L190 600M208.2 610.5l6 3.5M268.8 645.5l3 1.7M299.1 663l3 1.7M305.2 666.5l6 3.5M353.7 694.5l6 3.5M305.2 663l-3-1.7M287 652.5l-12.1-7M271.8 643.8l-3-1.8M256.7 635l-12.1-7M2 484.5L20.4 495M26.3 498.5L44.5 509M50.6 512.5L68.8 523M74.8 526.5L93 537M111.2 547.5l6 3.5M123.3 554.5l18.2 10.5M147.6 568.5l18.2 10.5M208.2 603.5l6 3.5M232.4 617.5l6.1 3.5M262.8 635l12 7M305.2 659.5l6 3.5M347.6 684l12.1 7M335.5 673.5l-12.1-7M317.3 663l-6-3.5M271.8 636.8l-3-1.8M262.8 631.5l-12.2-7M2 477.5l6.1 3.5M271.8 633.3l3 1.7M305.2 652.5l6 3.5M302.2 647.3l-3-1.8M8.1 474l6.1 3.5M105.1 530l6.1 3.5M177.9 572l6 3.5M190 579l18.2 10.5M226.4 600l6 3.5M262.8 621l3 1.7M274.9 628l6 3.5M299.1 642l3 1.7M311.2 649l9.1 5.2M371.9 684l6 3.5M347.6 666.5l-12.1-7M329.4 656l-6-3.5M305.2 642L287 631.5M265.8 619.3l-3-1.8M14.2 470.5l6 3.5M26.3 477.5L44.5 488M50.6 491.5L68.8 502M74.8 505.5L93 516M111.2 526.5l6 3.5M123.3 533.5l18.2 10.5M147.6 547.5l18.2 10.5M184 568.5l6 3.5M196 575.5l18.3 10.5M232.4 596.5l6.1 3.5M262.8 614l9 5.2M293 631.5l9.2 5.2M353.7 666.5l6 3.5M353.7 663l-12.1-7M335.5 652.5l-6-3.5M305.2 635l-3-1.7M287 624.5l-12.1-7M271.8 615.8l-3-1.8M265.8 612.3l-3-1.8M2 456.5L20.4 467M26.3 470.5L44.5 481M50.6 484.5L68.8 495M74.8 498.5L93 509M147.6 540.5l18.2 10.5M171.8 554.5l42.5 24.5M232.4 589.5l6.1 3.5M244.6 596.5l3 1.7M256.7 603.5l6 3.5M265.8 608.8l9 5.2M299.1 628l12.1 7M353.7 656l-6-3.5M341.6 649l-18.2-10.5M317.3 635l-6-3.5M271.8 608.8l-3-1.8M247.6 594.8l-3-1.8M111.2 512.5l6 3.5M247.6 591.3l3 1.7M271.8 605.3l3 1.7M365.8 656l-6-3.5M308.2 622.8l-3-1.8M302.2 619.3l-3-1.8M105.1 502l6.1 3.5M123.3 512.5l12.1 7M141.5 523l6 3.5M226.4 572l6 3.5M250.6 586l6 3.5M299.1 614l3 1.7M305.2 617.5l3 1.7M371.9 656l6 3.5M347.6 638.5l-12.1-7M329.4 628l-6-3.5M311.2 617.5l-24.2-14M74.8 477.5l12.1 7M129.4 509l12.1 7M147.6 519.5l18.2 10.5M171.8 533.5L190 544M208.2 554.5l6 3.5M232.4 568.5l6.1 3.5M244.6 575.5l3 1.7M256.7 582.5l9 5.2M268.8 589.5l3 1.7M299.1 607l3 1.7M305.2 610.5l3 1.7M311.2 610.5l-3-1.7M305.2 607l-3-1.7M271.8 587.8l-3-1.8M265.8 584.3l-3-1.8M247.6 573.8l-3-1.8M190 540.5L171.8 530M165.8 526.5L147.6 516M74.8 470.5l12.1 7M111.2 491.5l30.3 17.5M208.2 547.5l6 3.5M247.6 570.3l3 1.7M256.7 575.5l6 3.5M265.8 580.8l9 5.2M293 596.5l18.2 10.5M317.3 610.5l18.2 10.5M341.6 624.5l18.1 10.5M365.8 638.5L384 649M271.8 580.8l-3-1.8M80.9 467l6 3.5M232.4 554.5l12.2 7M271.8 577.3l3 1.7M302.2 591.3l-3-1.8M271.8 573.8l-3-1.8M247.6 559.8l-3-1.8M147.6 498.5l18.2 10.5M171.8 512.5L190 523M205.2 531.8l3 1.7M226.4 544l6 3.5M244.6 554.5l3 1.7M250.6 558l6 3.5M262.8 565l3 1.7M268.8 568.5l3 1.7M274.9 572l6 3.5M299.1 586l3 1.7M326.4 598.3l-3-1.8M308.2 587.8l-9-5.3M274.9 568.5l-6-3.5M265.8 563.3l-3-1.8M250.6 554.5l-3-1.7M123.3 477.5l18.2 10.5M147.6 491.5l18.2 10.5M208.2 526.5l6 3.5M232.4 540.5l6.1 3.5M256.7 554.5l6 3.5M265.8 559.8l6 3.5M293 575.5l9.2 5.2M305.2 582.5l3 1.7M317.3 589.5l9.1 5.2M329.4 596.5l6.1 3.5M341.6 603.5l18.1 10.5M365.8 617.5L384 628M329.4 593l-3-1.7M311.2 582.5l-3-1.7M305.2 579l-3-1.7M274.9 561.5l-6-3.5M214.3 526.5l-6.1-3.5M256.7 547.5l6 3.5M271.8 556.3l3 1.7M293 568.5l18.2 10.5M317.3 582.5l18.2 10.5M341.6 596.5l18.1 10.5M365.8 610.5L384 621M402.2 631.5l6 3.5M302.2 570.3l-3-1.8M265.8 549.3l-3-1.8M177.9 495l6 3.5M190 502l18.2 10.5M262.8 544l3 1.7M299.1 565l6 3.5M326.4 577.3l-3-1.8M308.2 566.8l-3-1.8M302.2 563.3l-3-1.8M271.8 545.8l-6-3.5M123.3 456.5l18.2 10.5M147.6 470.5l18.2 10.5M184 491.5l6 3.5M196 498.5l18.3 10.5M229.4 517.8l3 1.7M238.5 523l18.2 10.5M268.8 540.5l3 1.7M274.9 544l6 3.5M299.1 558l9.1 5.2M323.4 572l3 1.7M390 610.5l12.2 7M329.4 572l-3-1.7M311.2 561.5l-3-1.7M305.2 558l-3-1.7M274.9 540.5l-6-3.5M2 379.5l12.2 7M38.5 400.5l6 3.5M123.3 449.5l18.2 10.5M147.6 463.5l18.2 10.5M171.8 477.5L190 488M196 491.5l18.3 10.5M244.6 519.5l18.2 10.5M268.8 533.5l3 1.7M293 547.5l18.2 10.5M317.3 561.5l18.2 10.5M341.6 575.5l18.1 10.5M365.8 589.5L384 600M396.1 607l12.1 7M274.9 533.5l-3-1.7M244.6 512.5l18.2 10.5M293 540.5l18.2 10.5M317.3 554.5l12.1 7M341.6 568.5l18.1 10.5M402.2 603.5l6 3.5M426.4 617.5l6 3.5M326.4 556.3l-3-1.8M308.2 545.8l-3-1.8M302.2 542.3l-3-1.8M265.8 521.3l-3-1.8M2 365.5L20.4 376M26.3 379.5l12.2 7M171.8 463.5l12.1 7M226.4 495l6 3.5M262.8 516l3 1.7M299.1 537l6 3.5M308.2 542.3l3 1.7M326.4 552.8l15.2 8.7M302.2 535.3l-3-1.8M271.8 517.8l-9-5.3M32.4 376l12.1 7M123.3 428.5l18.2 10.5M147.6 442.5l18.2 10.5M177.9 460l12.1 7M208.2 477.5l6 3.5M262.8 509l3 1.7M268.8 512.5l3 1.7M274.9 516l6 3.5M302.2 531.8l3 1.7M371.9 572l6 3.5M384 579l18.2 10.5M420.4 600l6 3.5M274.9 512.5l-9.1-5.2M14.2 358.5l6 3.5M26.3 365.5L44.5 376M74.8 393.5l12.1 7M123.3 421.5l18.2 10.5M147.6 435.5l18.2 10.5M171.8 449.5L190 460M208.2 470.5l6 3.5M232.4 484.5l6.1 3.5M244.6 491.5l18.2 10.5M268.8 505.5l3 1.7M293 519.5l18.2 10.5M317.3 533.5l18.2 10.5M341.6 547.5l18.1 10.5M378 568.5l6 3.5M390 575.5l18.2 10.5M426.4 596.5l6 3.5M274.9 505.5l-3-1.8M262.8 498.5L244.6 488M293 512.5l18.2 10.5M341.6 540.5l18.1 10.5M365.8 554.5L384 565M390 568.5l18.2 10.5M426.4 589.5l6 3.5M308.2 517.8l-3-1.8M302.2 514.3l-3-1.8M74.8 379.5l12.1 7M202.1 453l6 3.5M226.4 467l12.1 7M299.1 509l12.1 7M308.2 510.7l-3-1.7M302.2 507.2l-3-1.7M271.8 489.7l-3-1.7M99 386.5l12.2 7M123.3 400.5l18.2 10.5M147.6 414.5l18.2 10.5M171.8 428.5L190 439M208.2 449.5l6 3.5M238.5 467l6 3.5M256.7 477.5l6 3.5M268.8 484.5l3 1.7M278 489.7l3 1.8M302.2 503.7l3 1.8M308.2 507.2l3 1.8M323.4 516l6 3.5M335.5 523l6 3.5M420.4 572l6 3.5M444.6 586l6 3.5M287 491.5L268.8 481M262.8 477.5L244.6 467M2 323.5L20.4 334M26.3 337.5L44.5 348M50.6 351.5L68.8 362M74.8 365.5L93 376M196 435.5l18.3 10.5M232.4 456.5l12.2 7M293 491.5l18.2 10.5M341.6 519.5l18.1 10.5M365.8 533.5L384 544M402.2 554.5l6 3.5M426.4 568.5l6 3.5M384 540.5L365.8 530M359.7 526.5L341.6 516M311.2 498.5L293.1 488M238.5 456.5l-12.1-7M220.3 446l-3-1.7M93 372.5L74.8 362M68.8 358.5L50.6 348M44.5 344.5L26.3 334M20.3 330.5L2 320M96 370.8l3 1.7M299.1 488l3 1.7M329.4 505.5l12.2 7M402.2 547.5l6 3.5M426.4 561.5l6 3.5M450.7 575.5l6 3.5M475 589.5l6 3.5M302.2 486.2l-3-1.7M74.8 351.5l12.1 7M141.5 390l18.2 10.5M165.8 404l18.1 10.5M190 418l6 3.5M232.4 442.5l6.1 3.5M302.2 482.7l3 1.8M468.9 579l12 7M487 582.5L469 572M450.7 561.5l-6-3.5M426.4 547.5l-6-3.5M402.2 533.5l-3-1.7M384 523l-18.2-10.5M359.7 509l-18.1-10.5M329.4 491.5l-3-1.8M311.2 481l-6-3.5M287 467l-18.2-10.5M262.8 453l-18.2-10.5M238.5 439l-6-3.5M214.3 425L196 414.5M190 411l-18.2-10.5M165.8 397l-18.2-10.5M87 351.5l-6.1-3.5M305.2 474l6 3.5M456.7 558l-6-3.5M432.5 544l-6-3.5M408.2 530l-6-3.5M359.7 502l-42.4-24.5M238.5 432l-18.2-10.5M214.3 418L196 407.5M177.9 397l-6-3.5M165.8 390l-18.2-10.5M117.3 362L99 351.5M87 344.5l-12.2-7M44.5 320l-18.2-10.5M20.3 306l-6.1-3.5M99 348l18.3 10.5M402.2 523l6 3.5M505.2 579l-6-3.5M487 568.5l-24.2-14M456.7 551l-6-3.5M44.5 313l-12.1-7M2 281.5L20.4 292M26.3 295.5l12.2 7M190 390l24.3 14M244.6 421.5l12 7M262.8 432l18.1 10.5M287 446l18.2 10.5M329.4 470.5l6.1 3.5M371.9 495l6 3.5M384 502l18.2 10.5M499.2 561.5l-6-3.5M450.7 533.5L432.5 523M426.4 519.5l-3-1.7M408.2 509l-18.1-10.5M384 495l-6-3.5M359.7 481l-24.2-14M311.2 453l-18.1-10.5M287 439l-24.2-14M256.7 421.5l-12.1-7M238.5 411l-42.4-24.5M190 383l-18.2-10.5M165.8 369l-18.2-10.5M135.4 351.5l-3-1.7M2 267.5l12.2 7M38.5 288.5l6 3.5M135.4 344.5l6.1 3.5M196 379.5l18.3 10.5M220.3 393.5l18.2 10.5M244.6 407.5l18.2 10.5M268.8 421.5L287 432M329.4 456.5l30.3 17.5M365.8 477.5L384 488M390 491.5l18.2 10.5M426.4 512.5l6 3.5M438.6 519.5l18.1 10.5M462.8 533.5L481 544M499.2 554.5l6 3.5M335.5 456.5l-6-3.5M141.5 344.5l-6-3.5M426.4 505.5l6 3.5M462.8 526.5L481 537M499.2 547.5l6 3.5M523.4 561.5l6 3.5M456.7 516l-12-7M426.4 498.5l-6-3.5M335.5 446l-24.3-14M305.2 428.5l-6-3.5M196 365.5l-6-3.5M184 358.5L165.7 348M156.7 335.8l3 1.7M171.8 344.5L190 355M196 358.5l18.3 10.5M220.3 372.5l18.2 10.5M244.6 386.5l18.2 10.5M268.8 400.5L287 411M305.2 421.5l30.3 17.5M347.6 446l12.1 7M365.8 456.5L384 467M402.2 477.5l6 3.5M444.6 502l18.2 10.5M493.1 530l6 3.5M517.4 544l6 3.5M353.7 446l-6-3.5M159.7 330.5l6 3.5M196 351.5l18.3 10.5M220.3 365.5l18.2 10.5M256.7 386.5l6 3.5M268.8 393.5l12.1 7M305.2 414.5l12.1 7M323.4 425l18.2 10.5M353.7 442.5l6 3.5M365.8 449.5l24.3 14M402.2 470.5l6 3.5M426.4 484.5l6 3.5M462.8 505.5L481 516M499.2 526.5l6 3.5M523.4 540.5l6 3.5M165.8 330.5l-6.1-3.5M287 397l6 3.5M396.1 460l6 3.5M450.7 491.5L481 509M499.2 519.5l6 3.5M523.4 533.5l6 3.5M547.7 547.5l6 3.5M426.4 470.5l-6-3.5M329.4 414.5l-6-3.5M305.2 400.5l-6-3.5M281 386.5l-12.2-7M256.7 372.5l-12.1-7M196 337.5l-6-3.5M87 274.5l-6.1-3.5M177.9 323.5l3 1.7M547.7 533.5l-6-3.5M523.4 519.5l-6-3.5M499.2 505.5l-6-3.5M432.5 467l-6-3.5M408.2 453l-6-3.5M384 439l-6-3.5M359.7 425l-6-3.5M335.5 411l-6-3.5M311.2 397l-6-3.5M293 386.5L275 376M262.8 369l-18.2-10.5M238.5 355l-18.2-10.5M214.3 341L196 330.5M184 323.5l-3-1.7M80.9 264l-6-3.5M181 318.3l3 1.7M553.7 530l-6-3.5M529.5 516l-6-3.5M505.2 502l-6-3.5M432.5 460l-6-3.5M408.2 446l-6-3.5M359.7 418l-6-3.5M335.5 404l-6-3.5M311.2 390l-6-3.5M287 376l-12.1-7M268.8 365.5l-6-3.5M141.5 292l-6-3.5M87 260.5l-12.2-7M274.9 362l6 3.5M299.1 376l6 3.5M499.2 491.5l6 3.5M523.4 505.5l6 3.5M547.7 519.5l24.2 14M450.7 456.5l-6-3.5M426.4 442.5l-6-3.5M402.2 428.5L384 418M378 414.5l-6.1-3.5M359.7 404l-12-7M329.4 386.5l-12-7M305.2 372.5L287 362M274.9 355l-12.1-7M256.7 344.5L238.5 334M232.4 330.5L214.3 320M202.1 313l-3-1.7M2 190.5L20.4 201M26.3 204.5L44.5 215M50.6 218.5L68.8 229M74.8 232.5L93 243M141.5 271l18.2 10.5M202.1 306l6 3.5M220.3 316.5l18.2 10.5M244.6 330.5l18.2 10.5M268.8 344.5L287 355M299.1 362l12.1 7M317.3 372.5l18.2 10.5M353.7 393.5l6 3.5M378 407.5l6 3.5M390 414.5l18.2 10.5M426.4 435.5l6 3.5M487 470.5l12.2 7M517.4 488l6 3.5M541.6 502l6 3.5M208.2 306l-6-3.5M14.2 190.5l6 3.5M26.3 197.5L44.5 208M50.6 211.5L68.8 222M74.8 225.5L93 236M135.4 260.5l6.1 3.5M299.1 355l12.1 7M323.4 369l12.1 7M353.7 386.5l6 3.5M426.4 428.5l6 3.5M523.4 484.5l6 3.5M547.7 498.5l6 3.5M553.7 495l-6-3.5M529.5 481l-6-3.5M378 393.5l-6.1-3.5M14.2 183.5l-6-3.5M2 169.5l6.1 3.5M105.1 229l6.1 3.5M223.3 297.3l3 1.7M238.5 306l18.2 10.5M262.8 320l18.1 10.5M287 334l18.2 10.5M311.2 348l18.2 10.5M347.6 369l6 3.5M371.9 383l6 3.5M384 390l18.2 10.5M408.2 404l18.2 10.5M444.6 425l6 3.5M572 491.5l-6.1-3.5M547.7 477.5l-6-3.5M432.5 411l-18.2-10.5M408.2 397l-6-3.5M384 383l-6-3.5M359.7 369l-6-3.5M335.5 355l-18.2-10.5M311.2 341l-18.1-10.5M287 327l-18.2-10.5M262.8 313l-18.2-10.5M232.4 295.5l-6-3.5M117.3 229l-6.1-3.5M93 215l-18.2-10.5M68.8 201l-18.2-10.5M44.5 187l-18.2-10.5M20.3 173L2 162.5M226.4 288.5l6 3.5M553.7 474l-6-3.5M408.2 390l-6-3.5M359.7 362l-6-3.5M165.8 250l-6.1-3.5M93 208l-18.2-10.5M68.8 194l-18.2-10.5M44.5 180l-18.2-10.5M20.3 166L2 155.5M547.7 463.5l24.2 14M450.7 400.5L432.5 390M426.4 386.5l-6-3.5M402.2 372.5L384 362M378 358.5l-6.1-3.5M353.7 344.5L335.5 334M329.4 330.5L311.2 320M305.2 316.5L287 306M281 302.5l-24.3-14M250.6 285l-3-1.7M135.4 218.5L117.3 208M111.2 204.5l-6-3.5M162.7 230.8l18.2 10.4M408.2 369l-18.1-10.5M384 355l-6-3.5M359.7 341l-18.1-10.5M335.5 327l-18.2-10.5M311.2 313l-18.1-10.5M287 299l-18.2-10.5M262.8 285l-12.2-7M208.2 253.5l-6-3.5M184 239.5L165.7 229M141.5 215l-18.2-10.5M117.3 201l-6.1-3.5M93 187l-18.2-10.5M68.8 173l-18.2-10.5M44.5 159l-18.2-10.5M20.3 145L2 134.5M14.2 134.5l6 3.5M26.3 141.5L44.5 152M50.6 155.5L68.8 166M74.8 169.5l12.1 7M111.2 190.5l6 3.5M123.3 197.5l12.1 7M159.7 218.5l6 3.5M462.8 393.5l12.1 7M268.8 274.5L250.6 264M147.6 204.5l-6-3.5M250.6 260.5l18.2 10.5M426.4 358.5L408.2 348M402.2 344.5L384 334M378 330.5L359.6 320M353.7 316.5L335.5 306M329.4 302.5L311.2 292M305.2 288.5L287 278M274.9 271l-3-1.7M226.4 243l-18.2-10.5M202.1 229L184 218.5M159.7 204.5l-6-3.5M141.5 194l-6-3.5M111.2 176.5l-36.4-21M14.2 120.5l-12.1-7M2 106.5L20.4 117M26.3 120.5L44.5 131M50.6 134.5L68.8 145M80.9 152l12.1 7M99 162.5l18.3 10.5M135.4 183.5l6.1 3.5M159.7 197.5l6 3.5M190 215l18.2 10.5M250.6 250l12.2 7M317.3 288.5l6 3.5M487 386.5l12.2 7M529.5 404l-6-3.5M481 376l-6-3.5M456.7 362l-18.1-10.5M432.5 348l-18.2-10.5M408.2 334l-15.1-8.8M390 323.5L372 313M365.8 309.5L347.6 299M341.6 295.5L323.4 285M305.2 274.5l-6-3.5M165.8 194l-6.1-3.5M141.5 180l-6-3.5M117.3 166l-36.4-21M299.1 267.5l6 3.5M323.4 281.5l18.2 10.5M347.6 295.5l18.2 10.5M371.9 309.5L390 320M393 321.7l15.2 8.8M414.3 334l18.2 10.5M438.6 348l18.1 10.5M475 369l6 3.5M535.5 400.5l-12-7M20.3 96l18.2 10.5M44.5 110L87 134.5M93 138l12.1 7M129.4 159l6 3.5M153.6 173l6 3.5M535.5 386.5l-6-3.5M499.2 365.5l-3-1.8M475 351.5l-3.1-1.8M323.4 264l-3-1.7M165.8 173l-6.1-3.5M141.5 159l-6-3.5M117.3 145L99 134.5M93 131l-18.2-10.5M68.8 117l-12.2-7M44.5 103L26.3 92.5M56.6 103l18.2 10.5M159.7 162.5l6 3.5M305.2 246.5l12.1 7M462.8 337.5l12.1 7M499.2 358.5l6 3.5M523.4 372.5l6 3.5M505.2 358.5l-6-3.5M490 349.7l-3-1.7M80.9 110l6 3.5M196 176.5l6.1 3.5M493.1 348l6 3.5M541.6 376l6 3.5M553.7 376l-12-7M208.2 176.5l-6-3.5M159.7 148.5L141.5 138M135.4 134.5L117.3 124M111.2 120.5L93 110M80.9 103l-12.1-7M62.7 92.5L44.5 82M50.6 78.5L68.8 89M99 106.5l18.3 10.5M147.6 134.5l18.2 10.5M202.1 166l6 3.5M520.4 349.7l3 1.8M547.7 365.5l24.2 14M553.7 362l-6-3.5M529.5 348l-6-3.5M432.5 292l-18.2-10.5M365.8 253.5L347.6 243M141.5 124l-18.2-10.5M523.4 341l6 3.5M226.4 166l-6-3.5M202.1 152l-6-3.5M153.6 124l-6-3.5M68.8 68l18.1 10.5M153.6 117l6 3.5M202.1 145l6 3.5M220.3 155.5l12.1 7M547.7 337.5l-3-1.8M438.6 274.5l-6.1-3.5M371.9 236l-6-3.5M208.2 141.5l-6-3.5M171.8 120.5l-6-3.5M141.5 103l-18.2-10.5M347.6 215l18.2 10.5M371.9 229l18.2 10.5M393 241.3l15.2 8.7M414.3 253.5l18.2 10.5M523.4 316.5l6 3.5M547.7 330.5l6 3.5M553.7 330.5l-6-3.5M184 113.5L202 124M220.3 134.5l30.3 17.5M523.4 309.5l6 3.5M256.7 148.5l-12.1-7M208.2 120.5L190 110M184 106.5l-6.1-3.5M117.3 61l18.1 10.5M141.5 75l6 3.5M226.4 124l6 3.5M244.6 134.5l12 7M390 218.5l18.2 10.5M411.3 230.8l3 1.7M529.5 299l6 3.5M541.6 306l6 3.5M568.9 321.7l3 1.8M553.7 306l-12-7M529.5 292l-6-3.5M493.1 271l-6-3.5M408.2 222L372 201M244.6 127.5l-6.1-3.5M153.6 68L178 82M184 85.5L202 96M208.2 99.5l18.2 10.5M268.8 134.5l6 3.5M487 260.5l6.1 3.5M547.7 295.5l12.1 7M553.7 292l-6-3.5M499.2 260.5l-6-3.5M256.7 120.5l-6-3.5M232.4 106.5L214.3 96M208.2 92.5L190 82M184 78.5L165.7 68M135.4 50.5L117.3 40M153.6 54l6 3.5M165.8 61l18.1 10.5M190 75l18.2 10.5M214.3 89l18.1 10.5M250.6 110l6 3.5M299.1 138l18.2 10.5M323.4 152l18.2 10.5M347.6 166l18.2 10.5M371.9 180l36.3 21M414.3 204.5l18.2 10.5M438.6 218.5l18.1 10.5M462.8 232.5L481 243M481 236l-18.2-10.5M426.4 204.5l-12-7M408.2 194L372 173M365.8 169.5l-12.1-7M317.3 141.5L299.1 131M135.4 29.5L153.6 40M177.9 54l6 3.5M244.6 92.5l6 3.5M268.8 106.5l6 3.5M329.4 141.5l6.1 3.5M432.5 201l6 3.5M456.7 215l6.1 3.5M559.8 274.5l12.1 7M499.2 232.5l-6-3.5M450.7 204.5l-6-3.5M432.5 194l-6-3.5M353.7 148.5l-12.1-7M256.7 92.5l-6-3.5M232.4 78.5L214.3 68M208.2 64.5L190 54M177.9 47l-12.1-7M159.7 36.5L141.5 26M190 47l6 3.5M299.1 110l18.2 10.5M329.4 127.5l36.4 21M371.9 152l36.3 21M414.3 176.5l18.2 10.5M444.6 194l36.4 21M499.2 225.5l6 3.5M505.2 222l-6-3.5M481 208l-18.2-10.5M456.7 194l-18.1-10.5M432.5 180l-18.2-10.5M408.2 166L372 145M365.8 141.5L323.4 117M317.3 113.5L299.1 103M196 43.5L178 33M159.7 15.5L177.9 26M196 36.5l6.1 3.5M208.2 43.5L226.4 54M232.4 57.5L275 82M523.4 218.5l-6-3.5M499.2 204.5l-6-3.5M250.6 61l-12.1-7M232.4 50.5L214.3 40M208.2 36.5L190 26M184 22.5L165.7 12M262.8 61l6 3.5M299.1 82l18.2 10.5M323.4 96l18.2 10.5M347.6 110l18.2 10.5M371.9 124l36.3 21M414.3 148.5l18.2 10.5M438.6 162.5l18.1 10.5M462.8 176.5L481 187M499.2 197.5l6 3.5M523.4 211.5l6 3.5M529.5 208l-6-3.5M505.2 194l-6-3.5M456.7 166l-18.1-10.5M341.6 99.5L323.4 89M268.8 57.5L250.6 47M184 1.5L202 12M208.2 15.5L226.4 26M232.4 29.5L250.6 40M268.8 50.5l6 3.5M305.2 71.5l6 3.5M481 173l6 3.5M547.7 204.5l-6-3.5M523.4 190.5l-6-3.5M499.2 176.5l-6-3.5M481 166l-12.1-7M438.6 141.5l-6.1-3.5M426.4 134.5l-36.3-21M384 110l-18.2-10.5M359.7 96l-6-3.5M323.4 75l-6-3.5M305.2 64.5l-6-3.5M299.1 54l6 3.5M311.2 61l30.4 17.5M359.7 89l6.1 3.5M371.9 96l18.2 10.5M408.2 117l6.1 3.5M420.4 124l36.3 21M468.9 152l12 7M499.2 169.5l6 3.5M523.4 183.5l6 3.5M547.7 197.5l6 3.5M553.7 194l-6-3.5M529.5 180l-6-3.5M505.2 166l-6-3.5M487 155.5L469 145M444.6 131l-48.5-28M365.8 85.5l-6-3.5M323.4 61l-18.2-10.5M493.1 152l6 3.5M572 190.5l-12.2-7M547.7 176.5l-6-3.5M523.4 162.5l-6-3.5M493.1 145l-12.1-7M475 134.5L456.6 124M396.1 89l-6-3.5M384 82l-6-3.5M359.7 68l-18.1-10.5M335.5 54l-12.1-7M323.4 40l18.2 10.5M347.6 54l18.2 10.5M384 75l6 3.5M396.1 82l36.4 21M450.7 113.5l6 3.5M462.8 120.5L481 131M487 134.5l18.2 10.5M523.4 155.5l6 3.5M547.7 169.5l6 3.5M553.7 166l-6-3.5M529.5 152l-6-3.5M390 71.5l-6-3.5M341.6 29.5L359.7 40M365.8 43.5l24.3 14M402.2 64.5l121.2 70M541.6 145l6 3.5M565.9 159l6 3.5M553.7 145l-6-3.5M529.5 131l-18.2-10.5M505.2 117l-12-7M420.4 68l-12.2-7M396.1 54L384 47M378 43.5l-6.1-3.5M365.8 36.5L347.6 26M378 36.5L396 47M408.2 54l30.4 17.5M487 99.5l24.3 14M547.7 134.5l6 3.5M523.4 113.5l-6-3.5M365.8 15.5L384 26M396.1 33l12.1 7M505.2 96l12.2 7M529.5 110l18.2 10.5M559.8 127.5l12.1 7M553.7 117l-18.2-10.5M529.5 103l-18.2-10.5M505.2 89l-18.1-10.5M438.6 50.5L420.4 40M414.3 36.5L396.1 26M390 22.5L372 12M390 1.5L408.3 12M414.3 15.5L432.5 26M438.6 29.5L456.7 40M505.2 68l18.2 10.5M529.5 82l18.2 10.5M553.7 96l18.2 10.5M378 764.5L359.6 775M353.7 778.5L335.5 789M329.4 792.5L311.2 803M287 810l18.2-10.5M317.3 792.5l12.1-7M287 803l-6 3.5M293 792.5l12.2-7M311.2 782l6.1-3.5M335.5 768l18.2-10.5M359.7 754l18.2-10.5M378 736.5L359.6 747M353.7 750.5L335.5 761M329.4 764.5L311.2 775M305.2 778.5l-24.3 14M268.8 799.5l-6 3.5M268.8 785.5l6-3.5M378 715.5L359.6 726M353.7 729.5L335.5 740M329.4 743.5L311.2 754M305.2 757.5L287 768M268.8 778.5l-6 3.5M238.5 789l30.3-17.5M317.3 743.5l12.1-7M335.5 733l18.2-10.5M378 701.5L359.6 712M329.4 729.5l-12 7M268.8 757.5L287 747M293 743.5l12.2-7M378 687.5L359.6 698M353.7 701.5L335.5 712M299.1 733l-12.1 7M281 743.5L262.7 754M244.6 764.5l-6.1 3.5M214.3 775l6-3.5M238.5 761l6-3.5M287 733l42.4-24.5M335.5 705l6-3.5M347.6 698l30.3-17.5M347.6 691l-12.1 7M274.9 733l-18.2 10.5M220.3 757.5l6-3.5M244.6 743.5l6-3.5M256.7 736.5l18.2-10.5M378 659.5L359.6 670M244.6 736.5l-6.1 3.5M220.3 750.5l-6 3.5M287 708.5l18.2-10.5M311.2 694.5l18.2-10.5M572 540.5L553.6 551M547.7 554.5L529.5 565M523.4 568.5L505.2 579M487 589.5l-6 3.5M450.7 610.5L432.5 621M426.4 624.5L408.2 635M402.2 638.5L384 649M371.9 656l-18.2 10.5M268.8 715.5L238.5 733M220.3 743.5l-6 3.5M335.5 673.5l12.1-7M353.7 663l12.1-7M572 533.5l-12.2 7M499.2 575.5L481 586M323.4 677l-3 1.8M353.7 656l6-3.5M481 579l-6 3.5M226.4 726l-6 3.5M202.1 740l-6 3.5M268.8 698l18.2-10.5M293 684l18.2-10.5M323.4 666.5l12.1-7M341.6 656l6-3.5M559.8 526.5l-6 3.5M547.7 533.5L529.5 544M523.4 547.5L505.2 558M499.2 561.5l-12.1 7M450.7 589.5L432.5 600M426.4 603.5L408.2 614M402.2 617.5L384 628M305.2 673.5l-3 1.8M244.6 708.5l-6.1 3.5M220.3 722.5l-6 3.5M262.8 694.5l18.1-10.5M287 680.5l12.1-7M302.2 671.8l3-1.8M317.3 663l12.1-7M335.5 652.5l6-3.5M572 512.5L553.6 523M547.7 526.5L529.5 537M523.4 540.5L505.2 551M499.2 554.5L456.7 579M450.7 582.5L432.5 593M426.4 596.5L408.2 607M390 617.5l-6 3.5M365.8 631.5l-6 3.5M311.2 663l-12 7M244.6 701.5l-6.1 3.5M302.2 664.8l3-1.8M311.2 659.5l12.2-7M329.4 649l18.2-10.5M402.2 603.5l-12.1 7M323.4 649l-12.2 7M302.2 661.3l-3 1.7M244.6 694.5l-6.1 3.5M220.3 708.5l-6 3.5M271.8 675.3l3-1.8M371.9 614l-6 3.5M311.2 649l-6 3.5M274.9 670l-3 1.8M268.8 673.5l-3 1.8M244.6 687.5l-24.3 14M208.2 708.5l-12.1 7M244.6 684l18.2-10.5M268.8 670l18.2-10.5M323.4 638.5l12.1-7M572 491.5L553.6 502M547.7 505.5L529.5 516M523.4 519.5L505.2 530M499.2 533.5L481 544M462.8 554.5l-6 3.5M450.7 561.5L432.5 572M426.4 575.5L408.2 586M402.2 589.5L384 600M365.8 610.5l-6 3.5M305.2 645.5l-3 1.8M274.9 663l-3 1.8M268.8 666.5l-6 3.5M220.3 694.5l-6 3.5M268.8 663l3-1.8M287 652.5l12.1-7M302.2 643.8l3-1.8M317.3 635l12.1-7M572 484.5L553.6 495M547.7 498.5L529.5 509M523.4 512.5L505.2 523M499.2 526.5L481 537M462.8 547.5l-6 3.5M450.7 554.5L432.5 565M426.4 568.5L408.2 579M365.8 603.5l-6 3.5M341.6 617.5l-6.1 3.5M311.2 635l-12 7M268.8 659.5l-6 3.5M226.4 684l-12.1 7M238.5 673.5l12.1-7M256.7 663l6-3.5M302.2 636.8l3-1.8M311.2 631.5l12.2-7M572 477.5l-6.1 3.5M302.2 633.3l-3 1.7M268.8 652.5l-6 3.5M271.8 647.3l3-1.8M565.9 474l-6.1 3.5M468.9 530l-6.1 3.5M396.1 572l-6 3.5M384 579l-18.2 10.5M347.6 600l-6 3.5M311.2 621l-3 1.8M299.1 628l-6 3.5M274.9 642l-3 1.8M262.8 649l-9.1 5.3M202.1 684l-6 3.5M226.4 666.5l12.1-7M244.6 656l6-3.5M268.8 642l18.2-10.5M308.2 619.3l3-1.8M559.8 470.5l-6 3.5M547.7 477.5L529.5 488M523.4 491.5L505.2 502M499.2 505.5L481 516M462.8 526.5l-6 3.5M450.7 533.5L432.5 544M426.4 547.5L408.2 558M390 568.5l-6 3.5M378 575.5L359.6 586M341.6 596.5l-6.1 3.5M311.2 614l-9 5.3M281 631.5l-9.2 5.3M220.3 666.5l-6 3.5M220.3 663l12.1-7M238.5 652.5l6-3.5M268.8 635l3-1.8M287 624.5l12.1-7M302.2 615.8l3-1.8M308.2 612.3l3-1.8M572 456.5L553.6 467M547.7 470.5L529.5 481M523.4 484.5L505.2 495M499.2 498.5L481 509M426.4 540.5L408.2 551M402.2 554.5L359.7 579M341.6 589.5l-6.1 3.5M329.4 596.5l-3 1.8M317.3 603.5l-6 3.5M308.2 608.8l-9 5.2M274.9 628l-12.1 7M220.3 656l6-3.5M232.4 649l18.2-10.5M256.7 635l6-3.5M302.2 608.8l3-1.8M326.4 594.8l3-1.8M462.8 512.5l-6 3.5M326.4 591.3l-3 1.7M302.2 605.3l-3 1.7M208.2 656l6-3.5M265.8 622.8l3-1.8M271.8 619.3l3-1.8M468.9 502l-6.1 3.5M450.7 512.5l-12.1 7M432.5 523l-6 3.5M347.6 572l-6 3.5M323.4 586l-6 3.5M274.9 614l-3 1.8M268.8 617.5l-3 1.8M202.1 656l-6 3.5M226.4 638.5l12.1-7M244.6 628l6-3.5M262.8 617.5l24.2-14M499.2 477.5l-12.1 7M444.6 509l-12.1 7M426.4 519.5L408.2 530M402.2 533.5L384 544M365.8 554.5l-6 3.5M341.6 568.5l-6.1 3.5M329.4 575.5l-3 1.8M317.3 582.5l-9 5.3M305.2 589.5l-3 1.8M274.9 607l-3 1.8M268.8 610.5l-3 1.8M262.8 610.5l3-1.8M268.8 607l3-1.8M302.2 587.8l3-1.8M308.2 584.3l3-1.8M326.4 573.8l3-1.8M384 540.5l18.2-10.5M408.2 526.5l18.2-10.5M499.2 470.5l-12.1 7M462.8 491.5L432.5 509M365.8 547.5l-6 3.5M326.4 570.3l-3 1.7M317.3 575.5l-6 3.5M308.2 580.8l-9 5.2M281 596.5L262.7 607M256.7 610.5L238.5 621M232.4 624.5L214.3 635M208.2 638.5L190 649M302.2 580.8l3-1.8M493.1 467l-6 3.5M341.6 554.5l-12.2 7M302.2 577.3l-3 1.7M271.8 591.3l3-1.8M302.2 573.8l3-1.8M326.4 559.8l3-1.8M426.4 498.5L408.2 509M402.2 512.5L384 523M368.8 531.8l-3 1.7M347.6 544l-6 3.5M329.4 554.5l-3 1.8M323.4 558l-6 3.5M311.2 565l-3 1.8M305.2 568.5l-3 1.8M299.1 572l-6 3.5M274.9 586l-3 1.8M247.6 598.3l3-1.8M265.8 587.8l9-5.3M299.1 568.5l6-3.5M308.2 563.3l3-1.8M323.4 554.5l3-1.8M450.7 477.5L432.5 488M426.4 491.5L408.2 502M365.8 526.5l-6 3.5M341.6 540.5l-6.1 3.5M317.3 554.5l-6 3.5M308.2 559.8l-6 3.5M281 575.5l-9.2 5.3M268.8 582.5l-3 1.8M256.7 589.5l-9.1 5.3M244.6 596.5l-6.1 3.5M232.4 603.5L214.3 614M208.2 617.5L190 628M244.6 593l3-1.8M262.8 582.5l3-1.8M268.8 579l3-1.8M299.1 561.5l6-3.5M359.7 526.5l6.1-3.5M317.3 547.5l-6 3.5M302.2 556.3l-3 1.7M281 568.5L262.7 579M256.7 582.5L238.5 593M232.4 596.5L214.3 607M208.2 610.5L190 621M171.8 631.5l-6 3.5M271.8 570.3l3-1.8M308.2 549.3l3-1.8M396.1 495l-6 3.5M384 502l-18.2 10.5M311.2 544l-3 1.8M274.9 565l-6 3.5M247.6 577.3l3-1.8M265.8 566.8l3-1.8M271.8 563.3l3-1.8M302.2 545.8l6-3.5M450.7 456.5L432.5 467M426.4 470.5L408.2 481M390 491.5l-6 3.5M378 498.5L359.6 509M344.6 517.8l-3 1.7M335.5 523l-18.2 10.5M305.2 540.5l-3 1.8M299.1 544l-6 3.5M274.9 558l-9.1 5.3M250.6 572l-3 1.8M184 610.5l-12.2 7M244.6 572l3-1.8M262.8 561.5l3-1.8M268.8 558l3-1.8M299.1 540.5l6-3.5M572 379.5l-12.2 7M535.5 400.5l-6 3.5M450.7 449.5L432.5 460M426.4 463.5L408.2 474M402.2 477.5L384 488M378 491.5L359.6 502M329.4 519.5L311.2 530M305.2 533.5l-3 1.8M281 547.5L262.7 558M256.7 561.5L238.5 572M232.4 575.5L214.3 586M208.2 589.5L190 600M177.9 607l-12.1 7M299.1 533.5l3-1.8M329.4 512.5L311.2 523M281 540.5L262.7 551M256.7 554.5l-12.1 7M232.4 568.5L214.3 579M171.8 603.5l-6 3.5M147.6 617.5l-6 3.5M247.6 556.3l3-1.8M265.8 545.8l3-1.8M271.8 542.3l3-1.8M308.2 521.3l3-1.8M572 365.5L553.6 376M547.7 379.5l-12.2 7M402.2 463.5l-12.1 7M347.6 495l-6 3.5M311.2 516l-3 1.8M274.9 537l-6 3.5M265.8 542.3l-3 1.7M247.6 552.8l-15.2 8.7M271.8 535.3l3-1.8M302.2 517.8l9-5.3M541.6 376l-12.1 7M450.7 428.5L432.5 439M426.4 442.5L408.2 453M396.1 460l-12.1 7M365.8 477.5l-6 3.5M311.2 509l-3 1.7M305.2 512.5l-3 1.8M299.1 516l-6 3.5M271.8 531.8l-3 1.7M202.1 572l-6 3.5M190 579l-18.2 10.5M153.6 600l-6 3.5M299.1 512.5l9.1-5.3M559.8 358.5l-6 3.5M547.7 365.5L529.5 376M499.2 393.5l-12.1 7M450.7 421.5L432.5 432M426.4 435.5L408.2 446M402.2 449.5L384 460M365.8 470.5l-6 3.5M341.6 484.5l-6.1 3.5M329.4 491.5L311.2 502M305.2 505.5l-3 1.7M281 519.5L262.7 530M256.7 533.5L238.5 544M232.4 547.5L214.3 558M196 568.5l-6 3.5M184 575.5L165.7 586M147.6 596.5l-6 3.5M299.1 505.5l3-1.8M311.2 498.5l18.2-10.5M281 512.5L262.7 523M232.4 540.5L214.3 551M208.2 554.5L190 565M184 568.5L165.7 579M147.6 589.5l-6 3.5M265.8 517.8l3-1.8M271.8 514.3l3-1.8M499.2 379.5l-12.1 7M371.9 453l-6 3.5M347.6 467l-12.1 7M274.9 509l-12.1 7M265.8 510.7l3-1.7M271.8 507.2l3-1.7M302.2 489.7l3-1.7M475 386.5l-12.2 7M450.7 400.5L432.5 411M426.4 414.5L408.2 425M402.2 428.5L384 439M365.8 449.5l-6 3.5M335.5 467l-6 3.5M317.3 477.5l-6 3.5M305.2 484.5l-3 1.7M296 489.7l-3 1.8M271.8 503.7l-3 1.8M265.8 507.2l-3 1.8M250.6 516l-6 3.5M238.5 523l-6 3.5M153.6 572l-6 3.5M129.4 586l-6 3.5M287 491.5l18.2-10.5M311.2 477.5l18.2-10.5M572 323.5L553.6 334M547.7 337.5L529.5 348M523.4 351.5L505.2 362M499.2 365.5L481 376M378 435.5L359.6 446M341.6 456.5l-12.2 7M281 491.5L262.7 502M232.4 519.5L214.3 530M208.2 533.5L190 544M171.8 554.5l-6 3.5M147.6 568.5l-6 3.5M190 540.5l18.2-10.5M214.3 526.5l18.1-10.5M262.8 498.5l18.1-10.5M335.5 456.5l12.1-7M353.7 446l3-1.8M481 372.5l18.2-10.5M505.2 358.5l18.2-10.5M529.5 344.5l18.2-10.5M553.7 330.5L572 320M478 370.7l-3 1.8M274.9 488l-3 1.7M244.6 505.5l-12.2 7M171.8 547.5l-6 3.5M147.6 561.5l-6 3.5M123.3 575.5l-6 3.5M99 589.5l-6 3.5M271.8 486.2l3-1.7M499.2 351.5l-12.1 7M432.5 390l-18.2 10.5M408.2 404l-18.1 10.5M384 418l-6 3.5M341.6 442.5l-6.1 3.5M271.8 482.7l-3 1.8M105.1 579l-12 7M87 582.5L105 572M123.3 561.5l6-3.5M147.6 547.5l6-3.5M171.8 533.5l3-1.8M190 523l18.2-10.5M214.3 509l18.1-10.5M244.6 491.5l3-1.8M262.8 481l6-3.5M287 467l18.2-10.5M311.2 453l18.2-10.5M335.5 439l6-3.5M359.7 425l18.2-10.5M384 411l18.2-10.5M408.2 397l18.2-10.5M487 351.5l6.1-3.5M268.8 474l-6 3.5M117.3 558l6-3.5M141.5 544l6-3.5M165.8 530l6-3.5M214.3 502l42.4-24.5M335.5 432l18.2-10.5M359.7 418l18.2-10.5M396.1 397l6-3.5M408.2 390l18.2-10.5M456.7 362l18.2-10.5M487 344.5l12.2-7M529.5 320l18.2-10.5M553.7 306l6.1-3.5M475 348l-18.3 10.5M171.8 523l-6 3.5M68.8 579l6-3.5M87 568.5l24.2-14M117.3 551l6-3.5M529.5 313l12.1-7M572 281.5L553.6 292M547.7 295.5l-12.2 7M384 390l-24.3 14M329.4 421.5l-12 7M311.2 432l-18.1 10.5M287 446l-18.2 10.5M244.6 470.5l-6.1 3.5M202.1 495l-6 3.5M190 502l-18.2 10.5M74.8 561.5l6-3.5M123.3 533.5l18.2-10.5M147.6 519.5l3-1.8M165.8 509l18.1-10.5M190 495l6-3.5M214.3 481l24.2-14M262.8 453l18.1-10.5M287 439l24.2-14M317.3 421.5l12.1-7M335.5 411l42.4-24.5M384 383l18.2-10.5M408.2 369l18.2-10.5M438.6 351.5l3-1.8M572 267.5l-12.2 7M535.5 288.5l-6 3.5M438.6 344.5l-6.1 3.5M378 379.5L359.6 390M353.7 393.5L335.5 404M329.4 407.5L311.2 418M305.2 421.5L287 432M244.6 456.5L214.3 474M208.2 477.5L190 488M184 491.5L165.7 502M147.6 512.5l-6 3.5M135.4 519.5L117.3 530M111.2 533.5L93 544M74.8 554.5l-6 3.5M238.5 456.5l6-3.5M432.5 344.5l6-3.5M147.6 505.5l-6 3.5M111.2 526.5L93 537M74.8 547.5l-6 3.5M50.6 561.5l-6 3.5M117.3 516l12-7M147.6 498.5l6-3.5M238.5 446l24.3-14M268.8 428.5l6-3.5M378 365.5l6-3.5M390 358.5l18.2-10.5M417.3 335.7l-3 1.8M402.2 344.5L384 355M378 358.5L359.6 369M353.7 372.5L335.5 383M329.4 386.5L311.2 397M305.2 400.5L287 411M268.8 421.5L238.5 439M226.4 446l-12.1 7M208.2 456.5L190 467M171.8 477.5l-6 3.5M129.4 502l-18.2 10.5M80.9 530l-6 3.5M56.6 544l-6 3.5M220.3 446l6-3.5M414.3 330.5l-6 3.5M378 351.5L359.6 362M353.7 365.5L335.5 376M317.3 386.5l-6 3.5M305.2 393.5l-12.1 7M268.8 414.5l-12.1 7M250.6 425l-18.2 10.5M220.3 442.5l-6 3.5M208.2 449.5l-24.3 14M171.8 470.5l-6 3.5M147.6 484.5l-6 3.5M111.2 505.5L93 516M74.8 526.5l-6 3.5M50.6 540.5l-6 3.5M408.2 330.5l6.1-3.5M287 397l-6 3.5M177.9 460l-6 3.5M123.3 491.5L93 509M74.8 519.5l-6 3.5M50.6 533.5l-6 3.5M26.3 547.5l-6 3.5M147.6 470.5l6-3.5M244.6 414.5l6-3.5M268.8 400.5l6-3.5M293 386.5l12.2-7M317.3 372.5l12.1-7M378 337.5l6-3.5M487 274.5l6.1-3.5M396.1 323.5l-3 1.7M26.3 533.5l6-3.5M50.6 519.5l6-3.5M74.8 505.5l6-3.5M141.5 467l6-3.5M165.8 453l6-3.5M190 439l6-3.5M214.3 425l6-3.5M238.5 411l6-3.5M262.8 397l6-3.5M281 386.5L299 376M311.2 369l18.2-10.5M335.5 355l18.2-10.5M359.7 341l18.2-10.5M390 323.5l3-1.8M493.1 264l6-3.5M393 318.2l-3 1.8M20.3 530l6-3.5M44.5 516l6-3.5M68.8 502l6-3.5M141.5 460l6-3.5M165.8 446l6-3.5M214.3 418l6-3.5M238.5 404l6-3.5M262.8 390l6-3.5M287 376l12.1-7M305.2 365.5l6-3.5M432.5 292l6-3.5M487 260.5l12.2-7M299.1 362l-6 3.5M274.9 376l-6 3.5M74.8 491.5l-6 3.5M50.6 505.5l-6 3.5M26.3 519.5l-24.2 14M123.3 456.5l6-3.5M147.6 442.5l6-3.5M171.8 428.5L190 418M196 414.5l6.1-3.5M214.3 404l12-7M244.6 386.5l12-7M268.8 372.5L287 362M299.1 355l12.1-7M317.3 344.5l18.2-10.5M341.6 330.5l18.1-10.5M371.9 313l3-1.8M572 190.5L553.6 201M547.7 204.5L529.5 215M523.4 218.5L505.2 229M499.2 232.5L481 243M432.5 271l-18.2 10.5M371.9 306l-6 3.5M353.7 316.5L335.5 327M329.4 330.5L311.2 341M305.2 344.5L287 355M274.9 362l-12.1 7M256.7 372.5L238.5 383M220.3 393.5l-6 3.5M196 407.5l-6 3.5M184 414.5L165.7 425M147.6 435.5l-6 3.5M87 470.5l-12.2 7M56.6 488l-6 3.5M32.4 502l-6 3.5M365.8 306l6-3.5M559.8 190.5l-6 3.5M547.7 197.5L529.5 208M523.4 211.5L505.2 222M499.2 225.5L481 236M438.6 260.5l-6.1 3.5M274.9 355l-12.1 7M250.6 369l-12.1 7M220.3 386.5l-6 3.5M147.6 428.5l-6 3.5M50.6 484.5l-6 3.5M26.3 498.5l-6 3.5M20.3 495l6-3.5M44.5 481l6-3.5M196 393.5l6.1-3.5M559.8 183.5l6-3.5M572 169.5l-6.1 3.5M468.9 229l-6.1 3.5M350.7 297.3l-3 1.7M335.5 306l-18.2 10.5M311.2 320l-18.1 10.5M287 334l-18.2 10.5M262.8 348l-18.2 10.5M226.4 369l-6 3.5M202.1 383l-6 3.5M190 390l-18.2 10.5M165.8 404l-18.2 10.5M129.4 425l-6 3.5M2 491.5l6.1-3.5M26.3 477.5l6-3.5M141.5 411l18.2-10.5M165.8 397l6-3.5M190 383l6-3.5M214.3 369l6-3.5M238.5 355l18.2-10.5M262.8 341l18.1-10.5M287 327l18.2-10.5M311.2 313l18.2-10.5M341.6 295.5l6-3.5M456.7 229l6.1-3.5M481 215l18.2-10.5M505.2 201l18.2-10.5M529.5 187l18.2-10.5M553.7 173l18.2-10.5M347.6 288.5l-6 3.5M20.3 474l6-3.5M165.8 390l6-3.5M214.3 362l6-3.5M408.2 250l6.1-3.5M481 208l18.2-10.5M505.2 194l18.2-10.5M529.5 180l18.2-10.5M553.7 166l18.2-10.5M26.3 463.5l-24.2 14M123.3 400.5l18.2-10.5M147.6 386.5l6-3.5M171.8 372.5L190 362M196 358.5l6.1-3.5M220.3 344.5l18.2-10.5M244.6 330.5l18.2-10.5M268.8 316.5L287 306M293 302.5l24.3-14M323.4 285l3-1.8M438.6 218.5l18.1-10.5M462.8 204.5l6-3.5M411.3 230.8L393 241.2M165.8 369l18.1-10.5M190 355l6-3.5M214.3 341l18.1-10.5M238.5 327l18.2-10.5M262.8 313l18.1-10.5M287 299l18.2-10.5M311.2 285l12.2-7M365.8 253.5l6-3.5M390 239.5l18.2-10.5M432.5 215l18.2-10.5M456.7 201l6.1-3.5M481 187l18.2-10.5M505.2 173l18.2-10.5M529.5 159l18.2-10.5M553.7 145l18.2-10.5M559.8 134.5l-6 3.5M547.7 141.5L529.5 152M523.4 155.5L505.2 166M499.2 169.5l-12.1 7M462.8 190.5l-6 3.5M450.7 197.5l-12.1 7M414.3 218.5l-6 3.5M111.2 393.5l-12.1 7M305.2 274.5l18.2-10.5M426.4 204.5l6-3.5M323.4 260.5L305.2 271M147.6 358.5l18.2-10.5M171.8 344.5L190 334M196 330.5l18.3-10.5M220.3 316.5l18.2-10.5M244.6 302.5l18.2-10.5M268.8 288.5L287 278M299.1 271l3-1.8M347.6 243l18.2-10.5M371.9 229l18.2-10.5M414.3 204.5l6-3.5M432.5 194l6-3.5M462.8 176.5l36.4-21M559.8 120.5l12.1-7M572 106.5L553.6 117M547.7 120.5L529.5 131M523.4 134.5L505.2 145M493.1 152l-12.1 7M475 162.5L456.6 173M438.6 183.5l-6.1 3.5M414.3 197.5l-6 3.5M384 215l-18.2 10.5M323.4 250l-12.2 7M256.7 288.5l-6 3.5M87 386.5l-12.2 7M44.5 404l6-3.5M93 376l6-3.5M117.3 362l18.1-10.5M141.5 348l18.2-10.5M165.8 334l15.1-8.8M184 323.5L202 313M208.2 309.5l18.2-10.5M232.4 295.5l18.2-10.5M268.8 274.5l6-3.5M408.2 194l6.1-3.5M432.5 180l6-3.5M456.7 166l36.4-21M274.9 267.5l-6 3.5M250.6 281.5L232.4 292M226.4 295.5L208.2 306M202.1 309.5L184 320M181 321.8l-15.2 8.7M159.7 334l-18.2 10.5M135.4 348l-18.1 10.5M99 369l-6 3.5M38.5 400.5l12-7M553.7 96l-18.2 10.5M529.5 110L487 134.5M481 138l-12.1 7M444.6 159l-6 3.5M420.4 173l-6 3.5M38.5 386.5l6-3.5M74.8 365.5l3-1.8M99 351.5l3.1-1.8M250.6 264l3-1.8M408.2 173l6.1-3.5M432.5 159l6-3.5M456.7 145l18.2-10.5M481 131l18.2-10.5M505.2 117l12.2-7M529.5 103l18.2-10.5M517.4 103l-18.2 10.5M414.3 162.5l-6 3.5M268.8 246.5l-12.1 7M111.2 337.5l-12.1 7M74.8 358.5l-6 3.5M50.6 372.5l-6 3.5M68.8 358.5l6-3.5M84 349.8l3-1.8M493.1 110l-6 3.5M378 176.5l-6.1 3.5M80.9 348l-6 3.5M32.4 376l-6 3.5M20.3 376l12-7M365.8 176.5l6-3.5M414.3 148.5l18.2-10.5M438.6 134.5l18.1-10.5M462.8 120.5L481 110M493.1 103l12.1-7M511.3 92.5L529.5 82M523.4 78.5L505.2 89M475 106.5L456.6 117M426.4 134.5L408.2 145M371.9 166l-6 3.5M53.6 349.8l-3 1.7M26.3 365.5l-24.2 14M20.3 362l6-3.5M44.5 348l6-3.5M141.5 292l18.2-10.5M208.2 253.5l18.2-10.5M432.5 124l18.2-10.5M50.6 341l-6 3.5M347.6 166l6-3.5M371.9 152l6-3.5M420.4 124l6-3.5M505.2 68l-18.1 10.5M420.4 117l-6 3.5M371.9 145l-6 3.5M353.7 155.5l-12.1 7M26.3 337.5l3-1.8M135.4 274.5l6.1-3.5M202.1 236l6-3.5M365.8 141.5l6-3.5M402.2 120.5l6-3.5M432.5 103l18.2-10.5M226.4 215l-18.2 10.5M202.1 229L184 239.5M181 241.3l-15.2 8.7M159.7 253.5L141.5 264M50.6 316.5l-6 3.5M26.3 330.5l-6 3.5M20.3 330.5l6-3.5M390 113.5L372 124M353.7 134.5L323.4 152M50.6 309.5l-6 3.5M317.3 148.5l12.1-7M365.8 120.5L384 110M390 106.5l6.1-3.5M456.7 61l-18.1 10.5M432.5 75l-6 3.5M347.6 124l-6 3.5M329.4 134.5l-12 7M184 218.5L165.7 229M162.7 230.8l-3 1.7M44.5 299l-6 3.5M32.4 306l-6 3.5M5.1 321.8l-3 1.7M20.3 306l12-7M44.5 292l6-3.5M80.9 271l6-3.5M165.8 222l36.3-21M329.4 127.5l6.1-3.5M420.4 68L396 82M390 85.5L372 96M365.8 99.5L347.6 110M305.2 134.5l-6 3.5M87 260.5l-6.1 3.5M26.3 295.5l-12.1 7M20.3 292l6-3.5M74.8 260.5l6-3.5M317.3 120.5l6-3.5M341.6 106.5L359.7 96M365.8 92.5L384 82M390 78.5L408.3 68M438.6 50.5L456.7 40M420.4 54l-6 3.5M408.2 61l-18.1 10.5M384 75l-18.2 10.5M359.7 89l-18.1 10.5M323.4 110l-6 3.5M274.9 138l-18.2 10.5M250.6 152l-18.2 10.5M226.4 166l-18.2 10.5M202.1 180l-36.3 21M159.7 204.5L141.5 215M135.4 218.5L117.3 229M111.2 232.5L93 243M93 236l18.2-10.5M147.6 204.5l12-7M165.8 194l36.3-21M208.2 169.5l12.1-7M256.7 141.5l18.2-10.5M438.6 29.5L420.4 40M396.1 54l-6 3.5M329.4 92.5l-6 3.5M305.2 106.5l-6 3.5M244.6 141.5l-6.1 3.5M141.5 201l-6 3.5M117.3 215l-6.1 3.5M14.2 274.5l-12.1 7M74.8 232.5l6-3.5M123.3 204.5l6-3.5M141.5 194l6-3.5M220.3 148.5l12.1-7M317.3 92.5l6-3.5M341.6 78.5L359.7 68M365.8 64.5L384 54M396.1 47l12.1-7M414.3 36.5L432.5 26M384 47l-6 3.5M274.9 110l-18.2 10.5M244.6 127.5l-36.4 21M202.1 152l-36.3 21M159.7 176.5L141.5 187M129.4 194L93 215M74.8 225.5l-6 3.5M68.8 222l6-3.5M93 208l18.2-10.5M117.3 194l18.1-10.5M141.5 180l18.2-10.5M165.8 166l36.3-21M208.2 141.5l42.4-24.5M256.7 113.5l18.2-10.5M378 43.5L396 33M414.3 15.5L396.1 26M378 36.5l-6.1 3.5M365.8 43.5L347.6 54M341.6 57.5L299 82M50.6 218.5l6-3.5M74.8 204.5l6-3.5M323.4 61l12.1-7M341.6 50.5L359.7 40M365.8 36.5L384 26M390 22.5L408.3 12M311.2 61l-6 3.5M274.9 82l-18.2 10.5M250.6 96l-18.2 10.5M226.4 110l-18.2 10.5M202.1 124l-36.3 21M159.7 148.5L141.5 159M135.4 162.5L117.3 173M111.2 176.5L93 187M74.8 197.5l-6 3.5M50.6 211.5l-6 3.5M44.5 208l6-3.5M68.8 194l6-3.5M117.3 166l18.1-10.5M232.4 99.5L250.6 89M305.2 57.5L323.4 47M390 1.5L372 12M365.8 15.5L347.6 26M341.6 29.5L323.4 40M305.2 50.5l-6 3.5M268.8 71.5l-6 3.5M93 173l-6 3.5M26.3 204.5l6-3.5M50.6 190.5l6-3.5M74.8 176.5l6-3.5M93 166l12.1-7M135.4 141.5l6.1-3.5M147.6 134.5l36.3-21M190 110l18.2-10.5M214.3 96l6-3.5M250.6 75l6-3.5M268.8 64.5l6-3.5M274.9 54l-6 3.5M262.8 61l-30.4 17.5M214.3 89l-6.1 3.5M202.1 96L184 106.5M165.8 117l-6.1 3.5M153.6 124l-36.3 21M105.1 152l-12 7M74.8 169.5l-6 3.5M50.6 183.5l-6 3.5M26.3 197.5l-6 3.5M20.3 194l6-3.5M44.5 180l6-3.5M68.8 166l6-3.5M87 155.5L105 145M129.4 131l48.5-28M208.2 85.5l6-3.5M250.6 61l18.2-10.5M80.9 152l-6 3.5M2 190.5l12.2-7M26.3 176.5l6-3.5M50.6 162.5l6-3.5M80.9 145l12.1-7M99 134.5l18.3-10.5M177.9 89l6-3.5M190 82l6-3.5M214.3 68l18.1-10.5M238.5 54l12.1-7M250.6 40l-18.2 10.5M226.4 54l-18.2 10.5M190 75l-6 3.5M177.9 82l-36.4 21M123.3 113.5l-6 3.5M111.2 120.5L93 131M87 134.5L68.7 145M50.6 155.5l-6 3.5M26.3 169.5l-6 3.5M20.3 166l6-3.5M44.5 152l6-3.5M184 71.5l6-3.5M232.4 29.5L214.3 40M208.2 43.5l-24.3 14M171.8 64.5l-121.2 70M32.4 145l-6 3.5M8.1 159l-6 3.5M20.3 145l6-3.5M44.5 131l18.2-10.5M68.8 117l12-7M153.6 68l12.2-7M177.9 54l12.1-7M196 43.5l6.1-3.5M208.2 36.5L226.4 26M196 36.5L178 47M165.8 54l-30.4 17.5M87 99.5l-24.3 14M26.3 134.5l-6 3.5M50.6 113.5l6-3.5M208.2 15.5L190 26M177.9 33l-12.1 7M68.8 96l-12.2 7M44.5 110l-18.2 10.5M14.2 127.5l-12.1 7M20.3 117l18.2-10.5M44.5 103l18.2-10.5M68.8 89l18.1-10.5M135.4 50.5L153.6 40M159.7 36.5L177.9 26M184 22.5L202 12M184 1.5L165.7 12M159.7 15.5L141.5 26M135.4 29.5L117.3 40M68.8 68L50.6 78.5M44.5 82L26.3 92.5M20.3 96L2 106.5">
    </path>
</svg>